<svg width="1423" height="982" viewBox="0 0 1423 982" fill="none" xmlns="http://www.w3.org/2000/svg">
<path d="M1232.95 84.3519L1261.81 52.2326C1263.21 50.6608 1265.91 50.6763 1267.31 52.2326L1293.4 81.2835L1319.49 52.2326C1320.9 50.6634 1323.6 50.6711 1325 52.2326L1351.1 81.2861L1377.2 52.2326C1377.9 51.4531 1378.9 51.004 1379.95 51.004C1381 51.004 1382 51.448 1382.7 52.2326L1408.81 81.2861L1434.93 52.2279C1436.33 50.6665 1439.03 50.6639 1440.43 52.2305L1466.54 81.2841L1492.67 52.2259C1493.37 51.4465 1494.37 50.9999 1495.42 50.9999C1496.47 50.9999 1497.47 51.4439 1498.17 52.2259L1527.05 84.3452C1528.42 85.8654 1528.29 88.2036 1526.77 89.5689C1525.25 90.9342 1522.91 90.8129 1521.55 89.2953L1495.42 60.2371L1469.29 89.2953C1467.89 90.8568 1465.19 90.8517 1463.79 89.2928L1437.68 60.2392L1411.56 89.2974C1410.16 90.8589 1407.46 90.8614 1406.06 89.2948L1379.95 60.2412L1353.85 89.2948C1352.45 90.864 1349.75 90.8563 1348.35 89.2948L1322.25 60.2412L1296.15 89.2948C1294.74 90.864 1292.05 90.8563 1290.64 89.2948L1264.56 60.2412L1238.45 89.2948C1237.09 90.8124 1234.75 90.9389 1233.23 89.5761C1231.71 88.2108 1231.58 85.8699 1232.95 84.3524L1232.95 84.3519Z" fill="#FAC4C5"/>
<path fill-rule="evenodd" clip-rule="evenodd" d="M7 109.532V-30.2636C7 -31.7749 8.22513 -33 9.73641 -33V-33C11.2477 -33 12.4728 -31.7749 12.4728 -30.2636V105.524C12.4728 107.18 13.816 108.524 15.4728 108.524H57.2618C58.774 108.524 60 109.749 60 111.262V111.262C60 112.774 58.774 114 57.2618 114H11.4647C8.99891 114 7 112 7 109.532Z" fill="#FAC7C6" stroke="#FAC7C6" stroke-width="5" stroke-linejoin="round"/>
<path d="M18.2739 905.137C18.2739 910.223 14.1365 914.274 9.13693 914.274C4.05135 914.274 6.83603e-08 910.137 6.83603e-08 905.137C-0.000601169 900.137 3.96484 896 9.05043 896C14.136 896 18.274 900.137 18.274 905.137H18.2739Z" fill="#69BFD1"/>
<path d="M18.2739 951.863C18.2739 956.949 14.1365 961 9.13693 961C4.05135 961 6.83603e-08 956.863 6.83603e-08 951.863C-0.000601169 946.864 3.96484 942.726 9.05043 942.726C14.136 942.726 18.274 946.864 18.274 951.863H18.2739Z" fill="#69BFD1"/>
<path d="M18.2739 928.5C18.2739 933.586 14.1365 937.637 9.13693 937.637C4.05135 937.637 6.83603e-08 933.5 6.83603e-08 928.5C-0.000601169 923.501 3.96484 919.363 9.05043 919.363C14.136 919.363 18.274 923.501 18.274 928.5H18.2739Z" fill="#69BFD1"/>
<path d="M18.2739 975.226C18.2739 980.312 14.1365 984.363 9.13693 984.363C4.05135 984.363 6.83603e-08 980.225 6.83603e-08 975.226C-0.000601169 970.226 3.96484 966.089 9.05043 966.089C14.136 966.089 18.274 970.226 18.274 975.226H18.2739Z" fill="#69BFD1"/>
<path d="M41.6371 905.137C41.6371 910.223 37.4998 914.274 32.5002 914.274C27.4146 914.274 23.3633 910.137 23.3633 905.137C23.3627 900.137 27.3281 896 32.4137 896C37.4993 896 41.6373 900.137 41.6373 905.137H41.6371Z" fill="#69BFD1"/>
<path d="M41.6371 951.863C41.6371 956.949 37.4998 961 32.5002 961C27.4146 961 23.3633 956.863 23.3633 951.863C23.3627 946.864 27.3281 942.726 32.4137 942.726C37.4993 942.726 41.6373 946.864 41.6373 951.863H41.6371Z" fill="#69BFD1"/>
<path d="M41.6371 928.5C41.6371 933.586 37.4998 937.637 32.5002 937.637C27.4146 937.637 23.3633 933.5 23.3633 928.5C23.3627 923.501 27.3281 919.363 32.4137 919.363C37.4993 919.363 41.6373 923.501 41.6373 928.5H41.6371Z" fill="#69BFD1"/>
<path d="M41.6371 975.226C41.6371 980.312 37.4998 984.363 32.5002 984.363C27.4146 984.363 23.3633 980.225 23.3633 975.226C23.3627 970.226 27.3281 966.089 32.4137 966.089C37.4993 966.089 41.6373 970.226 41.6373 975.226H41.6371Z" fill="#69BFD1"/>
<path d="M64.9995 905.137C64.9995 910.223 60.8621 914.274 55.8625 914.274C50.7769 914.274 46.7256 910.137 46.7256 905.137C46.725 900.137 50.6904 896 55.776 896C60.8616 896 64.9996 900.137 64.9996 905.137H64.9995Z" fill="#69BFD1"/>
<path d="M64.9995 951.863C64.9995 956.949 60.8621 961 55.8625 961C50.7769 961 46.7256 956.863 46.7256 951.863C46.725 946.864 50.6904 942.726 55.776 942.726C60.8616 942.726 64.9996 946.864 64.9996 951.863H64.9995Z" fill="#69BFD1"/>
<path d="M64.9995 928.5C64.9995 933.586 60.8621 937.637 55.8625 937.637C50.7769 937.637 46.7256 933.5 46.7256 928.5C46.725 923.501 50.6904 919.363 55.776 919.363C60.8616 919.363 64.9996 923.501 64.9996 928.5H64.9995Z" fill="#69BFD1"/>
<path d="M64.9995 975.226C64.9995 980.312 60.8621 984.363 55.8625 984.363C50.7769 984.363 46.7256 980.225 46.7256 975.226C46.725 970.226 50.6904 966.089 55.776 966.089C60.8616 966.089 64.9996 970.226 64.9996 975.226H64.9995Z" fill="#69BFD1"/>
<circle cx="1213.5" cy="1010.5" r="124.5" stroke="#E3EAF0" stroke-width="10"/>
</svg>
